# xmcd
#
# Track frame offsets:
#	150
#	20186
#	34300
#	61547
#	91563
#	107812
#	142293
#	169785
#
# Disc length: 2593 seconds
#
# Revision: 1
# Processed by: cddbd v1.5.2PL0 Copyright (c) Steve Scherf et al.
# Submitted via: audiograbber 1.83.01
#
DISCID=670a1f08
DTITLE=Crazy Cousinz Ft MC Versatile - It's That Funky - Warner Music Promo
DYEAR=2009
DGENRE=Funky House
TTITLE0=It's That Funky (Original Mix)
TTITLE1=It's That Funky (Radio Edit)
TTITLE2=It's That Funky (Chee Fu Ghettohouse Fix)
TTITLE3=It's That Funky (Phil England HouseWEST Remix)
TTITLE4=It's That Funky (Phil England HouseWEST Edit)
TTITLE5=It's That Funky (Dan Mckie Remix)
TTITLE6=It's That Funky (Dan Mckie's Fish Don't Dance Dub)
TTITLE7=It's That Funky (Ghettobusters Remix W/Drop)
EXTD=
EXTT0=
EXTT1=
EXTT2=
EXTT3=
EXTT4=
EXTT5=
EXTT6=
EXTT7=
PLAYORDER=
